# xmcd CD database file
#
# Track frame offsets:
#	180
#	9325
#	22237
#	36612
#	50300
#	65182
#	79080
#	92190
#	108202
#	121772
#
# Disc length: 1803 seconds
#
# Revision: 0
# Processed by: cddbd v1.5.1PL0 Copyright (c) Steve Scherf et al.
# Submitted via: CDex 1.51
#
DISCID=8107090a
DTITLE=Harold Harris - Here's Harold
DYEAR=1961
DGENRE=Blues
TTITLE0=Swing Low
TTITLE1=Again
TTITLE2=Bluesville
TTITLE3=Over the rainbow
TTITLE4=I could write a book
TTITLE5=Little Understanding
TTITLE6=Rapture
TTITLE7=Perfidia
TTITLE8=I can't get started
TTITLE9=Myria
EXTD=YEAR: 1961
EXTT0=
EXTT1=
EXTT2=
EXTT3=
EXTT4=
EXTT5=
EXTT6=
EXTT7=
EXTT8=
EXTT9=
PLAYORDER=
